<svg width="30" height="30" fill="none" xmlns="http://www.w3.org/2000/svg"><rect width="30" height="30" rx="5" fill="#293241"/><path d="M17.67 11.73a.6.6 0 1 0 0 1.2.6.6 0 0 0 0-1.2Zm2.3 1.21a3.793 3.793 0 0 0-.23-1.215 2.47 2.47 0 0 0-.58-.885 2.35 2.35 0 0 0-.885-.575 3.65 3.65 0 0 0-1.215-.235C16.53 10 16.36 10 15 10s-1.53 0-2.06.03a3.65 3.65 0 0 0-1.215.235 2.39 2.39 0 0 0-.885.575 2.35 2.35 0 0 0-.575.885 3.65 3.65 0 0 0-.235 1.215c-.03.53-.03.7-.03 2.06s0 1.53.03 2.06c.009.415.088.826.235 1.215.122.335.319.637.575.885.248.255.55.452.885.575.389.147.8.226 1.215.235.53.03.7.03 2.06.03s1.53 0 2.06-.03a3.65 3.65 0 0 0 1.215-.235 2.35 2.35 0 0 0 .885-.575c.256-.249.454-.55.58-.885.143-.39.22-.8.23-1.215 0-.53.03-.7.03-2.06s0-1.53-.03-2.06Zm-.9 4.06a2.803 2.803 0 0 1-.17.93 1.53 1.53 0 0 1-.375.575 1.595 1.595 0 0 1-.575.375 2.803 2.803 0 0 1-.93.17c-.5.025-.685.03-2 .03s-1.5 0-2-.03a2.865 2.865 0 0 1-.97-.15 1.636 1.636 0 0 1-.55-.375 1.499 1.499 0 0 1-.37-.575 2.769 2.769 0 0 1-.2-.95c0-.5-.03-.685-.03-2s0-1.5.03-2a2.77 2.77 0 0 1 .175-.95 1.5 1.5 0 0 1 .395-.55 1.57 1.57 0 0 1 .55-.4c.305-.11.626-.168.95-.17.5 0 .685-.03 2-.03s1.5 0 2 .03c.317.004.632.061.93.17.227.084.431.221.595.4.164.154.292.341.375.55.111.304.169.626.17.95.025.5.03.685.03 2s-.005 1.5-.03 2ZM15 12.435a2.566 2.566 0 1 0 .01 5.131 2.566 2.566 0 0 0-.01-5.131Zm0 4.23a1.665 1.665 0 1 1 0-3.33 1.665 1.665 0 0 1 0 3.33Z" fill="#FFA97A"/></svg>