<?xml version="1.0" standalone="no"?>
<!DOCTYPE svg PUBLIC "-//W3C//DTD SVG 20010904//EN"
 "http://www.w3.org/TR/2001/REC-SVG-20010904/DTD/svg10.dtd">
<svg version="1.0" xmlns="http://www.w3.org/2000/svg"
 width="420.000000pt" height="131.000000pt" viewBox="0 0 420.000000 131.000000"
 preserveAspectRatio="xMidYMid meet">

<g transform="translate(0.000000,131.000000) scale(0.100000,-0.100000)"
fill="#000000" stroke="none">
<path d="M1767 1062 c-10 -313 -9 -1030 2 -1036 4 -3 11 32 14 77 10 122 8
1165 -1 1171 -5 3 -12 -92 -15 -212z"/>
<path d="M898 1114 c-160 -38 -278 -143 -338 -299 -33 -85 -33 -234 0 -320 41
-107 92 -171 185 -233 149 -99 345 -116 498 -44 114 53 174 127 203 248 15 68
47 145 75 186 l19 26 -52 -20 c-80 -31 -81 -32 -105 -74 -27 -46 -28 -54 -9
-54 9 0 13 -8 10 -22 -2 -13 -2 -17 2 -10 3 6 13 12 21 12 31 0 1 -79 -30 -80
-5 0 -22 13 -38 29 -22 23 -29 39 -29 69 0 39 -1 40 -39 47 -21 3 -54 17 -72
31 -44 32 -118 59 -244 89 -114 27 -170 47 -197 72 -10 9 -21 14 -24 10 -11
-10 92 -105 132 -122 22 -9 72 -25 113 -36 41 -11 86 -26 100 -34 l26 -13 -28
-7 c-27 -7 -68 -4 -117 10 l-25 6 28 -24 c25 -21 66 -37 162 -63 27 -7 23 -9
-30 -14 l-60 -5 38 -24 c28 -17 59 -25 110 -29 62 -4 68 -6 52 -18 -10 -8 -27
-14 -38 -14 -32 0 -9 -18 33 -25 22 -4 40 -10 40 -14 0 -13 -64 -68 -100 -87
-46 -24 -153 -24 -197 -1 -18 10 -33 15 -33 12 0 -3 15 -15 33 -26 l32 -21
-45 6 c-25 4 -72 20 -106 35 -90 42 -137 112 -150 226 -9 73 -24 52 -24 -32 0
-35 -4 -63 -9 -63 -5 0 -22 25 -36 55 -47 96 -35 253 26 351 17 25 28 48 26
51 -3 2 -21 -10 -41 -27 -42 -37 -45 -27 -12 38 49 96 158 172 251 175 55 2
48 17 -8 17 l-42 1 35 18 c42 22 104 34 185 34 57 0 58 0 20 8 -57 11 -112 9
-177 -7z"/>
<path d="M1128 1103 c7 -3 16 -2 19 1 4 3 -2 6 -13 5 -11 0 -14 -3 -6 -6z"/>
<path d="M2367 933 c50 -10 53 -28 53 -300 l0 -253 35 0 35 0 0 164 0 164 31
26 c33 28 64 32 104 14 47 -21 55 -53 55 -218 l0 -150 35 0 35 0 -1 143 c0 83
-5 156 -12 176 -25 72 -116 100 -201 63 l-46 -21 0 77 c0 106 -12 122 -88 121
-31 -1 -47 -4 -35 -6z"/>
<path d="M3078 929 c40 -12 52 -39 52 -115 l0 -56 -32 9 c-100 25 -172 2 -212
-67 -27 -46 -34 -167 -12 -223 37 -97 130 -134 215 -86 38 21 42 21 59 6 10
-9 26 -17 36 -17 16 0 17 19 14 266 -3 306 0 295 -97 293 -53 -1 -54 -1 -23
-10z m17 -183 l35 -15 0 -145 0 -144 -31 -26 c-84 -71 -169 8 -169 159 0 70
17 124 50 157 32 32 63 35 115 14z"/>
<path d="M2084 766 c-64 -29 -83 -99 -42 -151 12 -15 58 -44 104 -65 81 -38
104 -59 104 -99 0 -32 -46 -61 -97 -61 -57 0 -101 23 -118 63 l-14 32 -1 -28
c0 -61 42 -87 142 -87 93 0 148 39 148 105 0 53 -29 82 -132 128 -101 46 -122
84 -73 132 46 47 129 29 173 -35 l24 -35 -4 34 c-4 49 -40 72 -119 77 -42 3
-75 0 -95 -10z"/>
<path d="M3303 748 c30 -26 52 -67 110 -202 39 -92 76 -168 81 -168 5 1 43 81
85 179 100 231 94 215 74 211 -11 -2 -36 -48 -73 -132 -30 -71 -60 -131 -65
-133 -6 -1 -27 39 -48 90 -20 51 -46 107 -57 125 -22 35 -72 62 -116 62 l-27
0 36 -32z"/>
</g>
</svg>
