<?xml version="1.0" standalone="no"?>
<!DOCTYPE svg PUBLIC "-//W3C//DTD SVG 20010904//EN"
 "http://www.w3.org/TR/2001/REC-SVG-20010904/DTD/svg10.dtd">
<svg version="1.0" xmlns="http://www.w3.org/2000/svg"
 width="451.000000pt" height="138.000000pt" viewBox="0 0 451.000000 138.000000"
 preserveAspectRatio="xMidYMid meet">

<g transform="translate(0.000000,138.000000) scale(0.100000,-0.100000)"
fill="#000000" stroke="none">
<path d="M0 690 l0 -690 2255 0 2255 0 0 690 0 690 -2255 0 -2255 0 0 -690z
m1851 -10 c-2 -344 -6 -629 -8 -633 -3 -4 -11 -3 -18 3 -11 9 -14 102 -15 473
0 254 2 535 6 625 6 142 9 162 23 160 15 -3 16 -62 12 -628z m-630 456 c37
-13 77 -31 90 -41 26 -19 31 -20 -66 16 -60 23 -61 23 -44 3 8 -10 0 -8 -25 7
-32 19 -47 21 -104 16 -37 -4 -85 -12 -107 -18 l-40 -12 35 -9 c59 -16 59 -28
-1 -28 -93 0 -180 -54 -245 -152 -43 -66 -43 -76 -1 -44 50 39 62 31 28 -17
-46 -68 -66 -140 -65 -237 1 -55 7 -98 17 -122 23 -51 37 -56 37 -13 0 20 5
57 12 83 11 42 13 45 19 22 4 -14 7 -39 8 -56 3 -107 74 -205 175 -243 78 -29
86 -27 43 13 -50 46 -46 51 12 15 99 -62 218 -49 296 31 l39 40 -34 0 c-19 1
-48 7 -65 15 -29 13 -30 13 -5 15 14 0 36 7 50 15 24 13 21 14 -41 15 -54 0
-73 5 -111 29 -61 39 -67 51 -20 40 76 -17 85 -7 14 16 -71 22 -113 50 -133
87 -8 15 -5 15 25 -3 26 -15 48 -19 88 -17 l53 3 -50 17 c-27 9 -82 26 -122
37 -80 24 -144 67 -185 126 -38 55 -35 62 11 26 46 -37 90 -54 226 -86 130
-31 181 -50 223 -82 23 -17 52 -28 83 -31 43 -4 47 -7 39 -23 -16 -29 -11 -56
16 -88 31 -38 61 -40 70 -6 9 36 -2 55 -14 25 l-11 -25 0 29 c-1 20 -5 27 -15
23 -13 -5 -13 0 -1 41 14 47 54 92 81 92 8 0 37 11 64 25 64 32 68 32 34 -8
-37 -42 -79 -136 -94 -208 -23 -115 -110 -214 -230 -260 -118 -46 -294 -35
-425 25 -62 28 -167 124 -202 183 -78 133 -85 332 -17 464 61 120 170 207 304
245 77 21 206 17 281 -10z m1310 -163 c8 -9 15 -48 18 -94 l3 -78 29 14 c36
19 122 19 159 0 54 -28 64 -63 68 -237 3 -139 2 -158 -12 -159 -9 -1 -28 -1
-43 -2 l-28 -1 -5 156 c-4 139 -7 160 -26 185 -27 36 -87 43 -121 14 -21 -18
-23 -27 -25 -187 -3 -184 -3 -185 -64 -170 l-24 6 0 245 c0 134 -4 255 -9 268
-6 16 -20 26 -40 30 -56 11 -34 27 38 27 52 0 72 -4 82 -17z m705 -4 c17 -19
19 -42 22 -284 3 -257 3 -263 -17 -270 -23 -7 -61 10 -61 27 0 6 -7 4 -18 -5
-26 -24 -103 -38 -142 -27 -85 24 -122 87 -122 206 0 89 29 157 82 193 32 21
43 23 114 18 l79 -5 -7 56 c-7 62 -17 79 -48 84 -12 2 -23 9 -26 16 -3 9 14
12 61 12 52 0 67 -4 83 -21z m189 -158 c32 -20 52 -52 91 -147 20 -49 39 -93
44 -97 4 -4 31 51 61 122 51 125 55 131 83 131 22 0 27 -4 22 -16 -3 -9 -43
-101 -87 -205 -59 -137 -86 -189 -98 -189 -12 0 -35 45 -84 158 -79 185 -99
219 -132 232 -29 11 -33 27 -7 32 25 5 84 -6 107 -21z m-1120 5 c37 -16 55
-42 55 -80 0 -33 -27 -35 -40 -2 -13 36 -49 56 -99 56 -50 0 -81 -21 -81 -55
0 -29 21 -46 112 -89 89 -42 118 -73 118 -125 0 -76 -57 -114 -166 -114 -44 1
-82 7 -102 17 -37 19 -38 21 -47 69 -9 49 15 51 43 3 36 -61 143 -74 178 -21
15 23 15 27 0 50 -10 15 -54 44 -104 68 -73 35 -90 48 -106 80 -16 34 -17 42
-4 75 21 56 67 82 145 82 35 0 79 -6 98 -14z"/>
<path d="M3033 768 c-55 -60 -57 -233 -4 -299 26 -32 82 -31 117 2 l26 24 -6
135 c-7 151 -11 160 -76 160 -25 0 -43 -7 -57 -22z"/>
</g>
</svg>
