<svg width="32" height="32" fill="none" xmlns="http://www.w3.org/2000/svg"><path d="M23.547 11.12c.35-.002.685-.14.933-.387l.947-.946a1.333 1.333 0 1 0-1.88-1.88l-.88.946a1.333 1.333 0 0 0 0 1.88c.235.234.548.372.88.387ZM16 8a1.333 1.333 0 0 0 1.333-1.333V5.333a1.334 1.334 0 0 0-2.666 0v1.334A1.333 1.333 0 0 0 16 8ZM5.333 16H4a1.334 1.334 0 0 0 0 2.667h1.333a1.333 1.333 0 0 0 0-2.667Zm2.187-5.267a1.333 1.333 0 0 0 1.88 0 1.333 1.333 0 0 0 0-1.88l-.947-.946a1.333 1.333 0 0 0-1.88 1.88l.947.946ZM28 16h-1.333a1.334 1.334 0 0 0 0 2.667H28A1.333 1.333 0 0 0 28 16Zm-13.333 9.333h-4a1.333 1.333 0 0 0 0 2.667h4a1.333 1.333 0 0 0 0-2.667ZM24 20h-1.173a7.186 7.186 0 0 0 .506-2.667 7.333 7.333 0 0 0-14.666 0c-.002.913.17 1.818.506 2.667H8a1.334 1.334 0 0 0 0 2.667h16A1.333 1.333 0 0 0 24 20Zm-4.2 0h-7.6a4.586 4.586 0 0 1-.867-2.667 4.667 4.667 0 0 1 9.334 0A4.587 4.587 0 0 1 19.8 20Zm1.533 5.333H20A1.333 1.333 0 1 0 20 28h1.333a1.333 1.333 0 0 0 0-2.667Z" fill="#fff"/></svg>