<svg width="30" height="30" fill="none" xmlns="http://www.w3.org/2000/svg"><rect width="30" height="30" rx="5" fill="#293241"/><path d="M20.496 10.975a.5.5 0 0 0-.756-.43 3.738 3.738 0 0 1-.936.397 2.576 2.576 0 0 0-1.687-.621 2.616 2.616 0 0 0-2.612 2.532 5.516 5.516 0 0 1-3.407-1.962.506.506 0 0 0-.656-.107.499.499 0 0 0-.165.174 2.638 2.638 0 0 0-.121 2.384l-.001.001a.52.52 0 0 0-.248.445c0 .073.004.146.013.22.051.629.33 1.217.785 1.656a.499.499 0 0 0-.034.384c.198.617.62 1.138 1.181 1.461-.57.221-1.187.298-1.794.224a.5.5 0 0 0-.333.917 6.472 6.472 0 0 0 3.505 1.03A6.394 6.394 0 0 0 19.462 15a6.415 6.415 0 0 0 .268-1.823v-.1a2.885 2.885 0 0 0 .766-2.1Zm-1.654 1.606a.497.497 0 0 0-.116.351 5.413 5.413 0 0 1-.223 1.784 5.342 5.342 0 0 1-5.273 3.965c-.43 0-.858-.05-1.275-.15a4.74 4.74 0 0 0 1.47-.782.5.5 0 0 0-.3-.893 1.604 1.604 0 0 1-1.107-.468c.075-.014.149-.032.223-.053a.5.5 0 0 0-.04-.971 1.6 1.6 0 0 1-1.125-.863c.09.012.181.02.272.023a.51.51 0 0 0 .492-.348.5.5 0 0 0-.2-.569 1.599 1.599 0 0 1-.71-1.435 6.507 6.507 0 0 0 4.105 1.74.51.51 0 0 0 .409-.18.5.5 0 0 0 .103-.434 1.615 1.615 0 0 1 2.21-1.845c.201.088.383.217.532.378a.496.496 0 0 0 .46.149c.206-.04.408-.094.606-.161a3.342 3.342 0 0 1-.513.762Z" fill="#FFA97A"/></svg>